<svg xmlns="http://www.w3.org/2000/svg" xmlns:xlink="http://www.w3.org/1999/xlink" id="visual" viewBox="0 0 160 961" width="160" height="961" version="1.1"><rect width="160" height="961" fill="#000"/><g><g transform="translate(74 768)"><path d="M36.8 -40.8C49.8 -33 63.9 -23.4 68.8 -10C73.7 3.4 69.4 20.5 60.8 34.9C52.2 49.3 39.4 61 25.4 63.3C11.4 65.6 -3.6 58.4 -19.4 52.9C-35.3 47.4 -51.9 43.5 -59.9 33C-67.8 22.5 -66.9 5.4 -61.5 -8.3C-56.1 -22.1 -46 -32.5 -35 -40.6C-24 -48.7 -12 -54.6 0 -54.6C11.9 -54.5 23.8 -48.5 36.8 -40.8Z" stroke="#32445C" fill="none" stroke-width="22"/></g><g transform="translate(138 439)"><path d="M38 -42C49.6 -35.6 59.6 -23.9 61.4 -11.2C63.2 1.5 56.8 15.3 48.6 26.7C40.4 38 30.3 46.9 18.4 51.7C6.5 56.4 -7.2 57.1 -18.7 52.5C-30.2 47.9 -39.4 38 -46.8 26.4C-54.2 14.9 -59.8 1.7 -57.6 -10.1C-55.5 -21.8 -45.5 -32.1 -34.6 -38.6C-23.7 -45.2 -11.9 -47.9 0.7 -48.7C13.2 -49.5 26.4 -48.4 38 -42Z" stroke="#32445C" fill="none" stroke-width="22"/></g><g transform="translate(51 111)"><path d="M41.4 -52.6C49.9 -42.1 50.6 -25.6 52.5 -10C54.4 5.7 57.6 20.4 52.6 31.7C47.6 43 34.5 50.9 21.2 53.9C7.8 56.8 -5.7 54.9 -18.2 50.3C-30.6 45.6 -42 38.2 -50.5 27.3C-59.1 16.4 -65 1.9 -64.1 -12.7C-63.2 -27.4 -55.7 -42.4 -43.9 -52.3C-32.1 -62.2 -16 -67.1 0.2 -67.4C16.4 -67.6 32.8 -63.1 41.4 -52.6Z" stroke="#32445C" fill="none" stroke-width="22"/></g><g transform="translate(139 925)"><path d="M23.5 -28.8C28.7 -23.6 30 -14.6 30.5 -6.2C31 2.2 30.8 9.9 27.5 16C24.1 22.1 17.7 26.4 10 30.6C2.4 34.7 -6.5 38.5 -13.3 36.2C-20.1 33.9 -24.9 25.5 -29.5 17.2C-34.2 8.8 -38.7 0.6 -37.8 -7C-36.8 -14.5 -30.3 -21.4 -23.1 -26.2C-15.8 -31.1 -7.9 -33.8 0.6 -34.5C9.1 -35.2 18.3 -34 23.5 -28.8Z" stroke="#32445C" fill="none" stroke-width="22"/></g></g></svg>